<svg viewBoxSize="575" data-root-id="7862019522263"
    xmlns="http://www.w3.org/2000/svg" xmlns:xlink="http://www.w3.org/1999/xlink" version="1.1" id="Layer_1"
    viewBox="202.0240020751953 91.88899993896484 347.64599609375 401.3269958496094"
    enable-background="new 0 0 792 612" xml:space="preserve" preserveAspectRatio="xMinYMin" zoom="1" editorType="buyer"
    data-layer-role="icon">
    <path fill-rule="evenodd" clip-rule="evenodd"
        d="M503.748,371.822c-0.19,0.149-66.353,51.591-48.519,117.479l-1.852,0.495  c-18.165-67.111,48.992-119.322,49.185-119.475L503.748,371.822z"
        name="Layer %{number}" zoom="1" data-layer-id="0612334722868"
        style="fill: rgb(236, 252, 255); fill-opacity: 1;"></path>
    <path fill-rule="evenodd" clip-rule="evenodd"
        d="M540.302,367.827c-0.217,0.095-75.571,32.368-78.042,82.017l-1.912-0.09  c2.53-50.852,78.97-83.585,79.189-83.681L540.302,367.827z"
        name="Layer %{number}" zoom="1" data-layer-id="8962954123171"
        style="fill: rgb(236, 252, 255); fill-opacity: 1;"></path>
    <path fill-rule="evenodd" clip-rule="evenodd"
        d="M503.084,372.028c-0.16-0.012-55.973-4.949-67.836,71.666l-1.89-0.293  c12.137-78.384,69.702-73.297,69.868-73.285L503.084,372.028z"
        name="Layer %{number}" zoom="1" data-layer-id="3455396623487"
        style="fill: rgb(236, 252, 255); fill-opacity: 1;"></path>
    <path fill-rule="evenodd" clip-rule="evenodd"
        d="M419.135,384.344l-2.701,31.271l47.046-32.146L419.135,384.344L419.135,384.344z   M414.348,417.466l3.022-35.001l52.489-1.034l-55.687,38.049L414.348,417.466z"
        name="Layer %{number}" zoom="1" data-layer-id="3600159723798"
        style="fill: rgb(236, 252, 255); fill-opacity: 1;"></path>
    <polygon fill-rule="evenodd" clip-rule="evenodd" fill="#CA0739"
        points="525.499,238.25 527.624,247 520.249,262.125   501.374,264.125 509.124,250.625 520.749,240.75 "
        name="Layer %{number}" zoom="1" data-layer-id="0719226524105"
        style="fill: rgb(7, 95, 202); fill-opacity: 1;"></polygon>
    <polygon fill-rule="evenodd" clip-rule="evenodd" fill="#FB024B"
        points="525.499,238.25 477.122,202.377 473.622,181.627   459.872,177.127 464.622,207.877 509.124,250.625 520.749,240.75 "
        name="Layer %{number}" zoom="1" data-layer-id="6339876624411"
        style="fill: rgb(2, 251, 246); fill-opacity: 1;"></polygon>
    <polygon fill-rule="evenodd" clip-rule="evenodd" fill="#243C96"
        points="473.622,181.627 483.434,186.065 486.684,200.19   484.442,207.805 477.122,202.377 "
        name="Layer %{number}" zoom="1" data-layer-id="7660786524720" style="fill: rgb(36, 60, 150);">
    </polygon>
    <polygon fill-rule="evenodd" clip-rule="evenodd" fill="#F89E00"
        points="473.622,181.627 438.183,137.567 483.434,186.065 " name="Layer %{number}" zoom="1"
        data-layer-id="1257993225019" style="fill: rgb(2, 124, 251); fill-opacity: 1;"></polygon>
    <polygon fill-rule="evenodd" clip-rule="evenodd" fill="#FB7F05"
        points="464.622,207.877 489.181,261.193 501.374,264.125   509.124,250.625 " name="Layer %{number}"
        zoom="1" data-layer-id="4217451325312" style="fill: rgb(23, 207, 228); fill-opacity: 1;"></polygon>
    <polygon fill-rule="evenodd" clip-rule="evenodd" fill="#037D6A"
        points="529.801,282.321 529.926,291.821 518.55,293.821   498.051,306.321 511.801,285.071 522.8,280.196 "
        name="Layer %{number}" zoom="1" data-layer-id="0139179925604"
        style="fill: rgb(28, 100, 223); fill-opacity: 1;"></polygon>
    <polygon fill-rule="evenodd" clip-rule="evenodd" fill="#FB7F05"
        points="520.249,262.125 529.801,282.321 522.8,280.196   501.374,264.125 " name="Layer %{number}"
        zoom="1" data-layer-id="3635660225907" style="fill: rgb(5, 243, 251); fill-opacity: 1;"></polygon>
    <polygon fill-rule="evenodd" clip-rule="evenodd" fill="#F89E00"
        points="489.181,261.193 498.051,306.321 511.801,285.071 " name="Layer %{number}" zoom="1"
        data-layer-id="8343606726213" style="fill: rgb(0, 189, 248); fill-opacity: 1;"></polygon>
    <polygon fill-rule="evenodd" clip-rule="evenodd" fill="#FDEC02"
        points="522.8,280.196 511.801,285.071 489.181,261.193   501.374,264.125 " name="Layer %{number}"
        zoom="1" data-layer-id="8718472926519" style="fill: rgb(2, 203, 253); fill-opacity: 1;"></polygon>
    <polygon fill-rule="evenodd" clip-rule="evenodd" fill="#27C69E"
        points="498.051,306.321 515.795,312.574 534.045,306.449   532.045,298.949 524.295,297.324 "
        name="Layer %{number}" zoom="1" data-layer-id="6502644526811"
        style="fill: rgb(5, 243, 251); fill-opacity: 1;"></polygon>
    <polygon fill-rule="evenodd" clip-rule="evenodd" fill="#037D6A"
        points="536.17,354.95 549.67,352.45 539.92,366.95 493.669,394.2   479.419,394.2 506.919,369.2 "
        name="Layer %{number}" zoom="1" data-layer-id="8002368127120"
        style="fill: rgb(28, 100, 223); fill-opacity: 1;"></polygon>
    <polygon fill-rule="evenodd" clip-rule="evenodd" fill="#60C005"
        points="518.67,329.2 536.17,354.95 549.67,352.45 532.42,315.45   " name="Layer %{number}" zoom="1"
        data-layer-id="1730471927412" style="fill: rgb(5, 243, 251); fill-opacity: 1;"></polygon>
    <polygon fill-rule="evenodd" clip-rule="evenodd" fill="#CA0739"
        points="464.622,207.877 452.794,213.448 446.669,208.573   445.794,197.698 459.872,177.127 "
        name="Layer %{number}" zoom="1" data-layer-id="9627886727724"
        style="fill: rgb(19, 148, 230); fill-opacity: 1;"></polygon>
    <polygon fill-rule="evenodd" clip-rule="evenodd" fill="#073BA0"
        points="445.794,197.698 438.418,196.949 424.168,199.449   407.668,217.449 433.418,210.449 446.669,208.573 "
        name="Layer %{number}" zoom="1" data-layer-id="8897683328017" style="fill: rgb(7, 59, 160);">
    </polygon>
    <polygon fill-rule="evenodd" clip-rule="evenodd" fill="#FB024B"
        points="459.872,177.127 438.917,173.199 424.168,199.449   437.868,197.045 445.794,197.698 "
        name="Layer %{number}" zoom="1" data-layer-id="3123150228328"
        style="fill: rgb(2, 124, 251); fill-opacity: 1;"></polygon>
    <polygon fill-rule="evenodd" clip-rule="evenodd" fill="#0B54C4"
        points="407.668,217.449 454.915,226.574 446.669,208.573   433.418,210.449 " name="Layer %{number}"
        zoom="1" data-layer-id="2894323528878" style="fill: rgb(11, 84, 196);"></polygon>
    <polygon fill-rule="evenodd" clip-rule="evenodd" fill="#FB7F05"
        points="446.669,208.573 452.794,213.448 464.622,207.877   489.181,261.193 454.915,226.574 "
        name="Layer %{number}" zoom="1" data-layer-id="5801530229260"
        style="fill: rgb(5, 186, 251); fill-opacity: 1;"></polygon>
    <polygon fill-rule="evenodd" clip-rule="evenodd" fill="#F89E00"
        points="407.668,217.449 441.164,252.577 470.709,242.531   454.915,226.574 " name="Layer %{number}"
        zoom="1" data-layer-id="3117101529565" style="fill: rgb(0, 152, 248); fill-opacity: 1;"></polygon>
    <polygon fill-rule="evenodd" clip-rule="evenodd" fill="#FDEC02"
        points="441.164,252.577 439.413,284.953 450.679,307.194   475.163,312.703 498.051,306.321 489.181,261.193 470.709,242.531 "
        name="Layer %{number}" zoom="1" data-layer-id="8199374529866"
        style="fill: rgb(2, 238, 253); fill-opacity: 1;"></polygon>
    <polygon fill-rule="evenodd" clip-rule="evenodd" fill="#FECD03"
        points="407.668,217.449 381.162,238.703 404.412,299.703   439.413,284.953 441.164,252.577 "
        name="Layer %{number}" zoom="1" data-layer-id="1890071230182"
        style="fill: rgb(3, 208, 254); fill-opacity: 1;"></polygon>
    <polygon fill-rule="evenodd" clip-rule="evenodd" fill="#D8EF00"
        points="404.412,299.703 407.911,327.703 426.411,354.203   469.169,343.7 439.413,284.953 "
        name="Layer %{number}" zoom="1" data-layer-id="6257943530500"
        style="fill: rgb(43, 173, 252); fill-opacity: 1;"></polygon>
    <polygon fill-rule="evenodd" clip-rule="evenodd" fill="#A6D600"
        points="498.911,332.453 498.051,306.321 475.163,312.703   450.553,306.945 469.169,343.7 "
        name="Layer %{number}" zoom="1" data-layer-id="0869773830814"
        style="fill: rgb(0, 189, 248); fill-opacity: 1;"></polygon>
    <polygon fill-rule="evenodd" clip-rule="evenodd" fill="#029C51"
        points="469.169,343.7 466.669,382.45 505.749,370.264 " name="Layer %{number}" zoom="1"
        data-layer-id="9943270531122" style="fill: rgb(28, 123, 223); fill-opacity: 1;"></polygon>
    <polygon fill-rule="evenodd" clip-rule="evenodd" fill="#00B623"
        points="518.67,329.2 536.17,354.95 505.749,370.264   469.169,343.7 498.911,332.453 "
        name="Layer %{number}" zoom="1" data-layer-id="8986929431421"
        style="fill: rgb(23, 207, 228); fill-opacity: 1;"></polygon>
    <polygon fill-rule="evenodd" clip-rule="evenodd" fill="#D8EF00"
        points="515.795,312.574 518.67,329.2 532.42,315.45   534.045,306.449 " name="Layer %{number}"
        zoom="1" data-layer-id="7519153331724" style="fill: rgb(7, 59, 160); fill-opacity: 1;"></polygon>
    <polygon fill-rule="evenodd" clip-rule="evenodd" fill="#B7E800"
        points="498.051,306.321 515.795,312.574 518.67,329.2   498.911,332.453 " name="Layer %{number}"
        zoom="1" data-layer-id="7883299232026" style="fill: rgb(28, 123, 223); fill-opacity: 1;"></polygon>
    <polygon fill-rule="evenodd" clip-rule="evenodd" fill="#F89E00"
        points="381.162,238.703 362.785,277.202 381.535,308.827   404.412,299.703 " name="Layer %{number}"
        zoom="1" data-layer-id="8530574832327" style="fill: rgb(0, 189, 248); fill-opacity: 1;"></polygon>
    <polygon fill-rule="evenodd" clip-rule="evenodd" fill="#6699FF"
        points="381.535,308.827 407.911,327.703 405.51,299.241 " name="Layer %{number}" zoom="1"
        data-layer-id="1351326332627" style="fill: rgb(0, 189, 248); fill-opacity: 1;"></polygon>
    <polygon fill-rule="evenodd" clip-rule="evenodd" fill="#FFFF00"
        points="417.782,381.702 426.411,354.203 466.669,382.45 " name="Layer %{number}" zoom="1"
        data-layer-id="5161105832922" style="fill: rgb(5, 243, 251); fill-opacity: 1;"></polygon>
    <path fill-rule="evenodd" clip-rule="evenodd"
        d="M374.587,343.79l6.26-36.632l28.91,20.688l-35.488,17.81L374.587,343.79  L374.587,343.79z M382.222,310.497l-5.426,31.751l29.27-14.688L382.222,310.497z"
        name="Layer %{number}" zoom="1" data-layer-id="1864021633217"
        style="fill: rgb(236, 252, 255); fill-opacity: 1;"></path>
    <polygon fill-rule="evenodd" clip-rule="evenodd" fill="#FCB000"
        points="362.785,277.202 324.156,257.075 350.656,203.075   381.162,238.703 " name="Layer %{number}"
        zoom="1" data-layer-id="3159843533514" style="fill: rgb(28, 123, 223); fill-opacity: 1;"></polygon>
    <polygon fill-rule="evenodd" clip-rule="evenodd" fill="#E41153"
        points="407.668,217.449 402.656,200.826 438.917,173.199   424.168,199.449 " name="Layer %{number}"
        zoom="1" data-layer-id="5385710233827" style="fill: rgb(17, 155, 228); fill-opacity: 1;"></polygon>
    <polygon fill-rule="evenodd" clip-rule="evenodd" fill="#1C7BDF"
        points="381.162,238.703 402.656,200.826 407.668,217.449 " name="Layer %{number}" zoom="1"
        data-layer-id="1499679334124" style="fill: rgb(28, 123, 223);"></polygon>
    <polygon fill-rule="evenodd" clip-rule="evenodd" fill="#FC7F03"
        points="390.266,123.806 438.917,173.199 402.656,200.826   372.155,157.576 " name="Layer %{number}"
        zoom="1" data-layer-id="4014272334433" style="fill: rgb(2, 238, 253); fill-opacity: 1;"></polygon>
    <polygon fill-rule="evenodd" clip-rule="evenodd" fill="#5E51F7"
        points="350.656,203.075 372.155,157.576 402.656,200.826   381.162,238.703 " name="Layer %{number}"
        zoom="1" data-layer-id="1418464534721" style="fill: rgb(23, 207, 228); fill-opacity: 1;"></polygon>
    <polygon fill-rule="evenodd" clip-rule="evenodd" fill="#FF4606"
        points="390.266,123.806 425.905,125.326 438.183,137.567   473.622,181.627 459.872,177.127 438.917,173.199 "
        name="Layer %{number}" zoom="1" data-layer-id="2113296735075"
        style="fill: rgb(2, 251, 246); fill-opacity: 1;"></polygon>
    <polygon fill-rule="evenodd" clip-rule="evenodd" fill="#5E51F7"
        points="324.156,257.075 303.527,205.262 350.656,203.075 " name="Layer %{number}" zoom="1"
        data-layer-id="9209099635464" style="fill: rgb(7, 95, 202); fill-opacity: 1;"></polygon>
    <polygon fill-rule="evenodd" clip-rule="evenodd" fill="#5E51F7"
        points="331.527,162.512 350.656,203.075 372.155,157.576 " name="Layer %{number}" zoom="1"
        data-layer-id="8821419435878" style="fill: rgb(0, 152, 248); fill-opacity: 1;"></polygon>
    <polygon fill-rule="evenodd" clip-rule="evenodd" fill="#FF4606"
        points="354.152,115.013 372.155,157.576 390.266,123.806 " name="Layer %{number}" zoom="1"
        data-layer-id="3186575236278" style="fill: rgb(23, 207, 228); fill-opacity: 1;"></polygon>
    <polygon fill-rule="evenodd" clip-rule="evenodd" fill="#5E51F7"
        points="331.527,162.512 354.152,115.013 372.155,157.576 " name="Layer %{number}" zoom="1"
        data-layer-id="1882418136591" style="fill: rgb(5, 243, 251); fill-opacity: 1;"></polygon>
    <polygon fill-rule="evenodd" clip-rule="evenodd" fill="#5E51F7"
        points="324.156,257.075 299.308,245.285 303.527,205.262 " name="Layer %{number}" zoom="1"
        data-layer-id="6655656237281" style="fill: rgb(43, 173, 252); fill-opacity: 1;"></polygon>
    <polygon fill-rule="evenodd" clip-rule="evenodd" fill="#FF9600"
        points="425.905,125.326 380.651,99.013 390.266,123.806 " name="Layer %{number}" zoom="1"
        data-layer-id="0615949737623" style="fill: rgb(5, 243, 251); fill-opacity: 1;"></polygon>
    <polygon fill-rule="evenodd" clip-rule="evenodd" fill="#2BADFC"
        points="381.162,238.703 372.155,157.576 402.656,200.826 " name="Layer %{number}" zoom="1"
        data-layer-id="6587800737925" style="fill: rgb(43, 173, 252);"></polygon>
    <polygon fill-rule="evenodd" clip-rule="evenodd" fill="#2506B2"
        points="225.963,312.889 324.156,257.075 209.963,202.888   202.024,258.311 " name="Layer %{number}"
        zoom="1" data-layer-id="4551083338239" style="fill: rgb(11, 84, 196); fill-opacity: 1;"></polygon>
    <polygon fill-rule="evenodd" clip-rule="evenodd" fill="#4F10D0"
        points="234.463,136.888 262.963,162.889 209.963,202.888 " name="Layer %{number}" zoom="1"
        data-layer-id="6455546438547" style="fill: rgb(0, 189, 248); fill-opacity: 1;"></polygon>
    <polygon fill-rule="evenodd" clip-rule="evenodd" fill="#FF0103"
        points="380.651,99.013 322.964,91.889 354.152,115.013   390.266,123.806 " name="Layer %{number}"
        zoom="1" data-layer-id="4565909138851" style="fill: rgb(2, 251, 246); fill-opacity: 1;"></polygon>
    <polygon fill-rule="evenodd" clip-rule="evenodd" fill="#FE0100"
        points="322.964,91.889 270.963,103.889 354.152,115.013 " name="Layer %{number}" zoom="1"
        data-layer-id="3628455339162" style="fill: rgb(43, 173, 252); fill-opacity: 1;"></polygon>
    <polygon fill-rule="evenodd" clip-rule="evenodd" fill="#8C12DF"
        points="270.963,103.889 262.963,162.889 234.463,136.888 " name="Layer %{number}" zoom="1"
        data-layer-id="4423490539470" style="fill: rgb(19, 148, 230); fill-opacity: 1;"></polygon>
    <polygon fill-rule="evenodd" clip-rule="evenodd" fill="#1C7BDF"
        points="262.963,162.889 299.308,245.285 209.963,202.888 " name="Layer %{number}" zoom="1"
        data-layer-id="6546555639762" style="fill: rgb(28, 123, 223);"></polygon>
    <polygon fill-rule="evenodd" clip-rule="evenodd" fill="#4F11CC"
        points="331.527,162.512 303.527,205.262 262.963,162.889 " name="Layer %{number}" zoom="1"
        data-layer-id="1841748940115" style="fill: rgb(0, 189, 248); fill-opacity: 1;"></polygon>
    <polygon fill-rule="evenodd" clip-rule="evenodd" fill="#7C01D5"
        points="270.963,103.889 331.527,162.512 354.152,115.013 " name="Layer %{number}" zoom="1"
        data-layer-id="9233659540595" style="fill: rgb(0, 189, 248); fill-opacity: 1;"></polygon>
    <polygon fill-rule="evenodd" clip-rule="evenodd" fill="#4106B0"
        points="209.963,202.888 249.465,255.89 324.156,257.075 " name="Layer %{number}" zoom="1"
        data-layer-id="6208626740976" style="fill: rgb(28, 100, 223); fill-opacity: 1;"></polygon>
    <polygon fill-rule="evenodd" clip-rule="evenodd" fill="#2506B2"
        points="225.963,312.889 249.465,255.89 324.156,257.075 " name="Layer %{number}" zoom="1"
        data-layer-id="6947855541467" style="fill: rgb(11, 84, 196); fill-opacity: 1;"></polygon>
    <polygon fill-rule="evenodd" clip-rule="evenodd" fill="#60C005"
        points="469.169,343.7 466.669,382.45 426.411,354.203 " name="Layer %{number}" zoom="1"
        data-layer-id="4766077841841" style="fill: rgb(43, 173, 252); fill-opacity: 1;"></polygon>
    <polygon fill-rule="evenodd" clip-rule="evenodd" fill="#4F10D0"
        points="270.963,103.889 331.527,162.512 262.963,162.889 " name="Layer %{number}" zoom="1"
        data-layer-id="0067048942237" style="fill: rgb(7, 95, 202); fill-opacity: 1;"></polygon>
    <path fill-rule="evenodd" clip-rule="evenodd"
        d="M328.542,313.199l-5.505-57.789l41.305,21.521  c-11.868,12.796-23.732,25.596-35.597,38.395L328.542,313.199L328.542,313.199z M325.275,258.741l4.969,52.151l30.983-33.419  L325.275,258.741z"
        name="Layer %{number}" zoom="1" data-layer-id="6306426742547"
        style="fill: rgb(236, 252, 255); fill-opacity: 1;"></path>
    <polygon fill-rule="evenodd" clip-rule="evenodd" fill="#6699FF"
        points="262.963,162.889 299.308,245.285 303.527,205.262 " name="Layer %{number}" zoom="1"
        data-layer-id="5014482342860" style="fill: rgb(0, 189, 248); fill-opacity: 1;"></polygon>
    <polygon fill-rule="evenodd" clip-rule="evenodd" fill="#6699FF"
        points="331.527,162.512 350.656,203.075 303.527,205.262 " name="Layer %{number}" zoom="1"
        data-layer-id="0356548643195" style="fill: rgb(3, 208, 254); fill-opacity: 1;"></polygon>
    <path fill-rule="evenodd" clip-rule="evenodd"
        d="M227.972,312.847l47.848,24.684l3.619-53.936L227.972,312.847L227.972,312.847z   M276.24,339.902l-52.286-26.974l57.636-32.759l-4.052,60.402L276.24,339.902z"
        name="Layer %{number}" zoom="1" data-layer-id="6597794343544"
        style="fill: rgb(236, 252, 255); fill-opacity: 1;"></path>
    <path fill-rule="evenodd" clip-rule="evenodd"
        d="M328.98,313.915l-50.319-32.081l46.307-26.321l5.665,59.456L328.98,313.915  L328.98,313.915z M282.367,281.93l45.989,29.32l-5.012-52.612L282.367,281.93z"
        name="Layer %{number}" zoom="1" data-layer-id="8802267443849"
        style="fill: rgb(236, 252, 255); fill-opacity: 1;"></path>
    <path fill-rule="evenodd" clip-rule="evenodd"
        d="M277.746,337.462l49.8-24.461l-46.184-29.445L277.746,337.462L277.746,337.462z   M329.914,313.968l-54.303,26.672c1.351-20.144,2.7-40.288,4.055-60.432c17.259,11.003,34.516,22.009,51.776,33.009L329.914,313.968  z"
        name="Layer %{number}" zoom="1" data-layer-id="7380957144155"
        style="fill: rgb(236, 252, 255); fill-opacity: 1;"></path>
    <path fill-rule="evenodd" clip-rule="evenodd"
        d="M331.106,315.34l11.212,40.438l31.153-12.055L331.106,315.34L331.106,315.34z   M340.756,357.307l-12.874-46.429l49.71,33.302l-36.554,14.145L340.756,357.307z"
        name="Layer %{number}" zoom="1" data-layer-id="1147469644456"
        style="fill: rgb(236, 252, 255); fill-opacity: 1;"></path>
    <polygon fill-rule="evenodd" clip-rule="evenodd"
        points="381.609,309.783 329.569,314.065 329.419,312.153 381.459,307.871 " name="Layer %{number}"
        zoom="1" data-layer-id="5577174544756" style="fill: rgb(236, 252, 255); fill-opacity: 1;"></polygon>
    <path fill-rule="evenodd" clip-rule="evenodd"
        d="M378.794,345.584L417.312,380l7.867-25.07L378.794,345.584L378.794,345.584z   M417.145,382.415l-44.874-40.096c18.458,3.719,36.915,7.44,55.373,11.156c-3.127,9.978-6.26,19.953-9.391,29.929L417.145,382.415z"
        name="Layer %{number}" zoom="1" data-layer-id="2118171345057"
        style="fill: rgb(236, 252, 255); fill-opacity: 1;"></path>
    <path fill-rule="evenodd" clip-rule="evenodd"
        d="M329.494,318.858c3.099,0,5.625-2.582,5.625-5.75c0-3.167-2.527-5.75-5.625-5.75  c-3.098,0-5.625,2.583-5.625,5.75C323.869,316.276,326.396,318.858,329.494,318.858z"
        name="Layer %{number}" zoom="1" data-layer-id="2262641545367"
        style="fill: rgb(236, 252, 255); fill-opacity: 1;"></path>
    <path fill-rule="evenodd" clip-rule="evenodd"
        d="M276.553,344.297c3.099,0,5.625-2.583,5.625-5.75s-2.527-5.75-5.625-5.75  c-3.098,0-5.625,2.583-5.625,5.75S273.455,344.297,276.553,344.297z"
        name="Layer %{number}" zoom="1" data-layer-id="0537901645669"
        style="fill: rgb(236, 252, 255); fill-opacity: 1;"></path>
    <path fill-rule="evenodd" clip-rule="evenodd"
        d="M376.641,349.292c3.099,0,5.625-2.583,5.625-5.75s-2.527-5.75-5.625-5.75  c-3.098,0-5.625,2.583-5.625,5.75S373.542,349.292,376.641,349.292z"
        name="Layer %{number}" zoom="1" data-layer-id="0500024345971"
        style="fill: rgb(236, 252, 255); fill-opacity: 1;"></path>
    <path fill-rule="evenodd" clip-rule="evenodd"
        d="M342.318,361.527c3.099,0,5.625-2.583,5.625-5.75s-2.527-5.75-5.625-5.75  c-3.098,0-5.625,2.583-5.625,5.75S339.22,361.527,342.318,361.527z"
        name="Layer %{number}" zoom="1" data-layer-id="8591940646279"
        style="fill: rgb(236, 252, 255); fill-opacity: 1;"></path>
    <path fill-rule="evenodd" clip-rule="evenodd"
        d="M416.434,421.365c3.099,0,5.625-2.583,5.625-5.75s-2.526-5.75-5.625-5.75  s-5.625,2.583-5.625,5.75S413.335,421.365,416.434,421.365z"
        name="Layer %{number}" zoom="1" data-layer-id="9495721846573"
        style="fill: rgb(236, 252, 255); fill-opacity: 1;"></path>
    <path fill-rule="evenodd" clip-rule="evenodd"
        d="M434.304,449.298c3.098,0,5.625-2.583,5.625-5.75c0-3.168-2.527-5.75-5.625-5.75  c-3.099,0-5.625,2.582-5.625,5.75C428.679,446.715,431.205,449.298,434.304,449.298z"
        name="Layer %{number}" zoom="1" data-layer-id="8875023246868"
        style="fill: rgb(236, 252, 255); fill-opacity: 1;"></path>
    <path fill-rule="evenodd" clip-rule="evenodd"
        d="M454.754,493.216c3.098,0,5.625-2.583,5.625-5.75s-2.527-5.75-5.625-5.75  c-3.099,0-5.625,2.583-5.625,5.75S451.655,493.216,454.754,493.216z"
        name="Layer %{number}" zoom="1" data-layer-id="4221946847162"
        style="fill: rgb(236, 252, 255); fill-opacity: 1;"></path>
    <path fill-rule="evenodd" clip-rule="evenodd"
        d="M462.26,455.594c3.099,0,5.625-2.583,5.625-5.75s-2.526-5.75-5.625-5.75  c-3.098,0-5.625,2.583-5.625,5.75S459.162,455.594,462.26,455.594z"
        name="Layer %{number}" zoom="1" data-layer-id="8158737547456"
        style="fill: rgb(236, 252, 255); fill-opacity: 1;"></path>
</svg>