<svg viewBoxSize="575" data-root-id="7866208248668"
xmlns="http://www.w3.org/2000/svg" viewBox="3.049999952316284 8.529999732971191 237.88999938964844 46.2400016784668" fontUrl="http://fonts.gstatic.com/s/roboto/v30/KFOlCnqEu92Fr1MmWUlvAx05IsDqlA.ttf" zoom="1">
<path
    zoom="1" style="fill: rgb(236, 252, 255); fill-opacity: 1;" d="M16.31 44.53L3.05 44.53L3.05 10.41L15 10.41Q21.21 10.41 24.42 12.79Q27.63 15.16 27.63 19.76L27.63 19.76Q27.63 22.27 26.34 24.18Q25.05 26.09 22.76 26.98L22.76 26.98Q25.38 27.63 26.89 29.63Q28.41 31.62 28.41 34.50L28.41 34.50Q28.41 39.42 25.27 41.95Q22.13 44.48 16.31 44.53L16.31 44.53ZM16.52 29.67L10.08 29.67L10.08 38.88L16.10 38.88Q18.59 38.88 19.98 37.70Q21.38 36.52 21.38 34.43L21.38 34.43Q21.38 29.74 16.52 29.67L16.52 29.67ZM10.08 16.10L10.08 24.70L15.28 24.70Q20.60 24.61 20.60 20.46L20.60 20.46Q20.60 18.14 19.25 17.12Q17.91 16.10 15 16.10L15 16.10L10.08 16.10ZM40.38 19.17L40.38 44.53L33.59 44.53L33.59 19.17L40.38 19.17ZM33.19 12.61L33.19 12.61Q33.19 11.09 34.21 10.10Q35.23 9.12 36.98 9.12L36.98 9.12Q38.72 9.12 39.75 10.10Q40.78 11.09 40.78 12.61L40.78 12.61Q40.78 14.16 39.74 15.14Q38.70 16.13 36.98 16.13Q35.27 16.13 34.23 15.14Q33.19 14.16 33.19 12.61ZM45.82 19.17L52.20 19.17L52.41 22.10Q55.13 18.70 59.70 18.70L59.70 18.70Q63.73 18.70 65.70 21.07Q67.66 23.44 67.71 28.15L67.71 28.15L67.71 44.53L60.94 44.53L60.94 28.31Q60.94 26.16 60 25.18Q59.06 24.21 56.88 24.21L56.88 24.21Q54.02 24.21 52.59 26.65L52.59 26.65L52.59 44.53L45.82 44.53L45.82 19.17ZM94.38 44.53L87.54 44.53Q87.07 43.62 86.86 42.26L86.86 42.26Q84.40 45 80.46 45L80.46 45Q76.73 45 74.29 42.84Q71.84 40.69 71.84 37.41L71.84 37.41Q71.84 33.38 74.82 31.22Q77.81 29.06 83.46 29.04L83.46 29.04L86.58 29.04L86.58 27.59Q86.58 25.83 85.68 24.77Q84.77 23.72 82.83 23.72L82.83 23.72Q81.12 23.72 80.14 24.54Q79.17 25.36 79.17 26.79L79.17 26.79L72.40 26.79Q72.40 24.59 73.76 22.71Q75.12 20.84 77.60 19.77Q80.09 18.70 83.18 18.70L83.18 18.70Q87.87 18.70 90.62 21.06Q93.38 23.41 93.38 27.68L93.38 27.68L93.38 38.67Q93.40 42.28 94.38 44.13L94.38 44.13L94.38 44.53ZM81.94 39.82L81.94 39.82Q83.44 39.82 84.70 39.15Q85.97 38.48 86.58 37.36L86.58 37.36L86.58 33L84.05 33Q78.96 33 78.63 36.52L78.63 36.52L78.61 36.91Q78.61 38.18 79.50 39Q80.39 39.82 81.94 39.82ZM112.92 19.01L112.83 25.52Q111.45 25.34 110.39 25.34L110.39 25.34Q106.55 25.34 105.35 27.94L105.35 27.94L105.35 44.53L98.58 44.53L98.58 19.17L104.98 19.17L105.16 22.20Q107.20 18.70 110.81 18.70L110.81 18.70Q111.94 18.70 112.92 19.01L112.92 19.01ZM121.27 19.17L125.98 34.95L130.66 19.17L137.93 19.17L127.73 48.47L127.17 49.80Q124.90 54.77 119.67 54.77L119.67 54.77Q118.20 54.77 116.67 54.33L116.67 54.33L116.67 49.20L117.70 49.22Q119.63 49.22 120.57 48.63Q121.52 48.05 122.06 46.69L122.06 46.69L122.86 44.60L113.98 19.17L121.27 19.17ZM166.73 10.41L166.73 16.10L156.28 16.10L156.28 44.53L149.25 44.53L149.25 16.10L138.94 16.10L138.94 10.41L166.73 10.41ZM179.88 45L179.88 45Q174.30 45 170.80 41.58Q167.30 38.16 167.30 32.46L167.30 32.46L167.30 31.80Q167.30 27.98 168.77 24.97Q170.25 21.96 172.96 20.33Q175.66 18.70 179.13 18.70L179.13 18.70Q184.34 18.70 187.32 21.98Q190.31 25.27 190.31 31.29L190.31 31.29L190.31 34.05L174.16 34.05Q174.49 36.54 176.14 38.04Q177.80 39.54 180.33 39.54L180.33 39.54Q184.24 39.54 186.45 36.70L186.45 36.70L189.77 40.43Q188.25 42.59 185.65 43.79Q183.05 45 179.88 45ZM179.11 24.19L179.11 24.19Q177.09 24.19 175.84 25.55Q174.59 26.91 174.23 29.44L174.23 29.44L183.66 29.44L183.66 28.90Q183.61 26.65 182.44 25.42Q181.27 24.19 179.11 24.19ZM204.70 39.54L204.70 39.54Q206.58 39.54 207.75 38.51Q208.92 37.48 208.97 35.77L208.97 35.77L215.32 35.77Q215.30 38.34 213.91 40.49Q212.53 42.63 210.13 43.82Q207.73 45 204.82 45L204.82 45Q199.38 45 196.24 41.54Q193.10 38.09 193.10 31.99L193.10 31.99L193.10 31.55Q193.10 25.69 196.22 22.20Q199.34 18.70 204.77 18.70L204.77 18.70Q209.53 18.70 212.40 21.41Q215.27 24.12 215.32 28.62L215.32 28.62L208.97 28.62Q208.92 26.65 207.75 25.42Q206.58 24.19 204.66 24.19L204.66 24.19Q202.29 24.19 201.08 25.91Q199.88 27.63 199.88 31.50L199.88 31.50L199.88 32.20Q199.88 36.12 201.07 37.83Q202.27 39.54 204.70 39.54ZM225.80 8.53L225.80 21.94Q228.49 18.70 232.57 18.70L232.57 18.70Q240.82 18.70 240.94 28.29L240.94 28.29L240.94 44.53L234.16 44.53L234.16 28.48Q234.16 26.30 233.23 25.25Q232.29 24.21 230.11 24.21L230.11 24.21Q227.13 24.21 225.80 26.51L225.80 26.51L225.80 44.53L219.02 44.53L219.02 8.53L225.80 8.53Z">
</path>
</svg>