<svg viewBoxSize="575" data-root-id="0467205345886" xmlns="http://www.w3.org/2000/svg"
viewBox="3.119999885559082 12.529999732971191 288.5 53.6300048828125" x="220.06998443603513"
fontUrl="http://fonts.gstatic.com/s/poppins/v20/pxiByp8kv8JHgFVrLCz7V1tvFP-KUEg.ttf" zoom="1">
<path zoom="1" style="fill: rgb(0, 0, 0);"
    d="M24.50 34.72Q27.57 35.37 29.43 37.76Q31.30 40.15 31.30 43.22L31.30 43.22Q31.30 47.65 28.20 50.24Q25.11 52.83 19.57 52.83L19.57 52.83L3.12 52.83L3.12 17.51L19.02 17.51Q24.40 17.51 27.45 19.97Q30.49 22.44 30.49 26.67L30.49 26.67Q30.49 29.79 28.86 31.85Q27.22 33.91 24.50 34.72L24.50 34.72ZM11.72 24.40L11.72 31.80L17.36 31.80Q19.47 31.80 20.60 30.87Q21.74 29.94 21.74 28.13L21.74 28.13Q21.74 26.31 20.60 25.36Q19.47 24.40 17.36 24.40L17.36 24.40L11.72 24.40ZM18.06 45.89Q20.23 45.89 21.41 44.91Q22.59 43.92 22.59 42.06L22.59 42.06Q22.59 40.20 21.36 39.14Q20.13 38.09 17.96 38.09L17.96 38.09L11.72 38.09L11.72 45.89L18.06 45.89ZM40.60 21.84Q38.34 21.84 36.91 20.50Q35.47 19.17 35.47 17.21L35.47 17.21Q35.47 15.19 36.91 13.86Q38.34 12.53 40.60 12.53L40.60 12.53Q42.82 12.53 44.25 13.86Q45.69 15.19 45.69 17.21L45.69 17.21Q45.69 19.17 44.25 20.50Q42.82 21.84 40.60 21.84L40.60 21.84ZM36.28 24.75L44.88 24.75L44.88 52.83L36.28 52.83L36.28 24.75ZM68.23 24.45Q73.16 24.45 76.10 27.65Q79.04 30.84 79.04 36.43L79.04 36.43L79.04 52.83L70.49 52.83L70.49 37.58Q70.49 34.77 69.03 33.21Q67.57 31.65 65.11 31.65L65.11 31.65Q62.64 31.65 61.18 33.21Q59.72 34.77 59.72 37.58L59.72 37.58L59.72 52.83L51.12 52.83L51.12 24.75L59.72 24.75L59.72 28.48Q61.03 26.62 63.25 25.53Q65.46 24.45 68.23 24.45L68.23 24.45ZM83.32 38.74Q83.32 34.42 84.96 31.14Q86.59 27.87 89.41 26.11Q92.23 24.35 95.70 24.35L95.70 24.35Q98.67 24.35 100.91 25.56Q103.14 26.77 104.35 28.73L104.35 28.73L104.35 24.75L112.96 24.75L112.96 52.83L104.35 52.83L104.35 48.86Q103.09 50.82 100.86 52.03Q98.62 53.23 95.65 53.23L95.65 53.23Q92.23 53.23 89.41 51.45Q86.59 49.66 84.96 46.36Q83.32 43.07 83.32 38.74L83.32 38.74ZM104.35 38.79Q104.35 35.57 102.57 33.71Q100.78 31.85 98.21 31.85L98.21 31.85Q95.65 31.85 93.86 33.69Q92.08 35.52 92.08 38.74L92.08 38.74Q92.08 41.96 93.86 43.85Q95.65 45.74 98.21 45.74L98.21 45.74Q100.78 45.74 102.57 43.87Q104.35 42.01 104.35 38.79L104.35 38.79ZM127.80 29.43Q129.31 27.12 131.57 25.79Q133.84 24.45 136.60 24.45L136.60 24.45L136.60 33.56L134.24 33.56Q131.02 33.56 129.41 34.94Q127.80 36.33 127.80 39.80L127.80 39.80L127.80 52.83L119.19 52.83L119.19 24.75L127.80 24.75L127.80 29.43ZM160.10 24.75L169.41 24.75L151.80 66.16L142.54 66.16L148.98 51.87L137.56 24.75L147.17 24.75L153.66 42.31L160.10 24.75ZM170.62 17.51L197.94 17.51L197.94 24.40L188.58 24.40L188.58 52.83L179.97 52.83L179.97 24.40L170.62 24.40L170.62 17.51ZM228.73 38.34Q228.73 39.55 228.58 40.86L228.58 40.86L209.11 40.86Q209.31 43.47 210.79 44.86Q212.28 46.24 214.44 46.24L214.44 46.24Q217.66 46.24 218.92 43.52L218.92 43.52L228.08 43.52Q227.37 46.29 225.53 48.50Q223.70 50.72 220.93 51.97Q218.16 53.23 214.74 53.23L214.74 53.23Q210.62 53.23 207.40 51.47Q204.18 49.71 202.36 46.44Q200.55 43.17 200.55 38.79L200.55 38.79Q200.55 34.42 202.34 31.14Q204.13 27.87 207.35 26.11Q210.57 24.35 214.74 24.35L214.74 24.35Q218.82 24.35 221.99 26.06Q225.16 27.77 226.94 30.94Q228.73 34.11 228.73 38.34L228.73 38.34ZM209.16 36.08L219.92 36.08Q219.92 33.86 218.41 32.55Q216.91 31.25 214.64 31.25L214.64 31.25Q212.48 31.25 210.99 32.50Q209.51 33.76 209.16 36.08L209.16 36.08ZM231.55 38.79Q231.55 34.42 233.33 31.14Q235.12 27.87 238.31 26.11Q241.51 24.35 245.64 24.35L245.64 24.35Q250.92 24.35 254.47 27.12Q258.01 29.89 259.12 34.92L259.12 34.92L249.96 34.92Q248.80 31.70 245.48 31.70L245.48 31.70Q243.12 31.70 241.71 33.53Q240.30 35.37 240.30 38.79L240.30 38.79Q240.30 42.21 241.71 44.05Q243.12 45.89 245.48 45.89L245.48 45.89Q248.80 45.89 249.96 42.67L249.96 42.67L259.12 42.67Q258.01 47.60 254.44 50.42Q250.87 53.23 245.64 53.23L245.64 53.23Q241.51 53.23 238.31 51.47Q235.12 49.71 233.33 46.44Q231.55 43.17 231.55 38.79L231.55 38.79ZM280.96 24.45Q285.79 24.45 288.70 27.65Q291.62 30.84 291.62 36.43L291.62 36.43L291.62 52.83L283.07 52.83L283.07 37.58Q283.07 34.77 281.61 33.21Q280.15 31.65 277.69 31.65L277.69 31.65Q275.22 31.65 273.76 33.21Q272.30 34.77 272.30 37.58L272.30 37.58L272.30 52.83L263.70 52.83L263.70 15.60L272.30 15.60L272.30 28.53Q273.61 26.67 275.87 25.56Q278.14 24.45 280.96 24.45L280.96 24.45Z">
</path>
</svg>